<?xml version="1.0" standalone="no"?>
<!DOCTYPE svg PUBLIC "-//W3C//DTD SVG 1.1//EN" "http://www.w3.org/Graphics/SVG/1.1/DTD/svg11.dtd" >
<svg xmlns="http://www.w3.org/2000/svg">
<metadata>
Created by FontForge 20120731 at Sat Jul 29 19:50:23 2017
 By admin
</metadata>
<defs>
<font id="iconfont" horiz-adv-x="1024" >
  <font-face 
    font-family="iconfont"
    font-weight="500"
    font-stretch="normal"
    units-per-em="1024"
    panose-1="2 0 6 3 0 0 0 0 0 0"
    ascent="896"
    descent="-128"
    x-height="792"
    bbox="0 -128 1112.04 896.391"
    underline-thickness="0"
    underline-position="0"
    unicode-range="U+0078-E6ED"
  />
<missing-glyph 
 />
    <glyph glyph-name=".notdef" 
 />
    <glyph glyph-name=".notdef" 
 />
    <glyph glyph-name=".null" horiz-adv-x="0" 
 />
    <glyph glyph-name="nonmarkingreturn" horiz-adv-x="341" 
 />
    <glyph glyph-name="x" unicode="x" horiz-adv-x="1001" 
d="M281 543q-27 -1 -53 -1h-83q-18 0 -36.5 -6t-32.5 -18.5t-23 -32t-9 -45.5v-76h912v41q0 16 -0.5 30t-0.5 18q0 13 -5 29t-17 29.5t-31.5 22.5t-49.5 9h-133v-97h-438v97zM955 310v-52q0 -23 0.5 -52t0.5 -58t-10.5 -47.5t-26 -30t-33 -16t-31.5 -4.5q-14 -1 -29.5 -0.5
t-29.5 0.5h-32l-45 128h-439l-44 -128h-29h-34q-20 0 -45 1q-25 0 -41 9.5t-25.5 23t-13.5 29.5t-4 30v167h911zM163 247q-12 0 -21 -8.5t-9 -21.5t9 -21.5t21 -8.5q13 0 22 8.5t9 21.5t-9 21.5t-22 8.5zM316 123q-8 -26 -14 -48q-5 -19 -10.5 -37t-7.5 -25t-3 -15t1 -14.5
t9.5 -10.5t21.5 -4h37h67h81h80h64h36q23 0 34 12t2 38q-5 13 -9.5 30.5t-9.5 34.5q-5 19 -11 39h-368zM336 498v228q0 11 2.5 23t10 21.5t20.5 15.5t34 6h188q31 0 51.5 -14.5t20.5 -52.5v-227h-327z" />
    <glyph glyph-name="daohang" unicode="&#xe61b;" 
d="M894 684l-764 -318l316 -132l126 -316z" />
    <glyph glyph-name="xiangji" unicode="&#xe6ed;" 
d="M521 425q-71 0 -122 -51t-51 -123t51 -123t122.5 -51t122.5 51t51 123t-51 123t-123 51v0zM891 574h-163l-64 83q-6 7 -15 7h-265q-9 0 -15 -8l-60 -82h-176q-28 0 -48 -20t-20 -48v-504q0 -28 20 -48t48 -20h758q28 0 48 20t20 48v504q0 28 -20 48t-48 20v0zM521 40
q-87 0 -149 62t-62 149t62 149t149.5 62t149 -62t61.5 -149t-61.5 -149t-149.5 -62v0zM811 416q-12 0 -20 8t-8 19t8 19t19.5 8t19.5 -8t8 -19t-8 -19t-19 -8v0zM811 416z" />
    <glyph glyph-name="xinyongqia" unicode="&#xe61c;" 
d="M546 179h-205v-68h205v68zM273 179h-136v-68h136v68v0zM85 43q-6 0 -11.5 5t-5.5 12v324h888v-324q0 -7 -5 -12t-12 -5h-854zM939 725q7 0 12 -5t5 -12v-119h-888v119q0 7 5 12t12 5h854zM85 794q-35 0 -60 -25.5t-25 -60.5v-648q0 -35 25 -60.5t60 -25.5h854
q35 0 60 25.5t25 60.5v648q0 35 -25 60.5t-60 25.5h-854z" />
    <glyph glyph-name="liwu" unicode="&#xe6ce;" 
d="M436 633h-420v-158h420v158v0zM750 887q40 18 85.5 1.5t63.5 -56.5q20 -38 3 -86t-62 -70q-29 -14 -89.5 -27.5t-120.5 -13.5t-71.5 24t26.5 75.5t87.5 95t77.5 57.5v0v0zM818 735q20 10 27 29t-2 39q-9 18 -30 22t-40 -7q-29 -13 -78.5 -55t-41.5 -59t69.5 -1t95.5 32v0
v0zM436 423h-367v-524h367v524v0zM1013 633h-420v-158h420v158v0zM960 423h-367v-524h367v524v0zM129 832q19 40 64.5 56.5t85.5 -1.5q28 -14 77.5 -57.5t87.5 -95t26.5 -75.5t-71.5 -24t-120.5 13.5t-90.5 27.5q-45 22 -61.5 70t2.5 86v0v0zM211 735q34 -16 95.5 -32
t69.5 1t-41.5 59t-78.5 55q-19 11 -40 7t-30 -22q-9 -20 -2 -39t27 -29v0v0z" />
    <glyph glyph-name="duihao" unicode="&#xe65e;" 
d="M271 68l-269 274l107 109l269 -273l-107 -110v0zM378 -41l-107 109l645 657l108 -109l-646 -657v0z" />
    <glyph glyph-name="shuidiketang" unicode="&#xe600;" horiz-adv-x="1820" 
d="M1112 282q-7 -117 -121 -172q-48 -23 -109 -14q-97 13 -150 103q-28 48 -23 112q3 55 41 109q57 80 81 126q32 60 45 102q6 19 24 25q12 4 24.5 -2t17.5 -18q2 -4 9 -23.5t12 -30.5q30 -68 85 -148q28 -41 38 -57q27 -46 26 -112zM809 247q0 -31 24 -45q16 -9 33.5 -7
t29.5 15t13.5 30.5t-8.5 32.5q-27 41 -34 61q-2 6 -7 6q-7 -1 -8 -6q-8 -22 -34 -61q-9 -12 -9 -26z" />
    <glyph glyph-name="ren-copy" unicode="&#xe601;" 
d="M674 361q45 40 71 97t26 123q0 117 -77.5 200.5t-186.5 83.5t-186 -83.5t-77 -200.5q0 -119 78 -202q8 -7 22 -18.5t52.5 -30.5t78 -26.5t94.5 5t105 52.5zM851 164l-143 131q-20 -17 -43.5 -31t-65.5 -27t-85.5 -14t-103 17t-119.5 58q-24 -19 -48.5 -39.5t-58.5 -54
t-58 -63.5t-39 -64.5t-10 -61.5q1 -4 2 -11t11.5 -24t27.5 -30.5t54.5 -25t87.5 -13.5q22 -1 58.5 -3t133 -4t175.5 1.5t154.5 18t100.5 40.5v0q36 25 35 72q0 57 -66 128z" />
    <glyph glyph-name="xiangji1" unicode="&#xe650;" horiz-adv-x="1037" 
d="M979 -32h-928q-20 0 -35.5 13t-15.5 32v640q0 20 14 35.5t37 15.5h205l77 77q4 9 15.5 14t22.5 5h288q19 0 32 -13v0l90 -83h205q20 0 35.5 -14t15.5 -37v-640q-5 -20 -20 -32.5t-38 -12.5zM518 640q-120 0 -204 -84t-84 -204t84 -204t204 -84t204 84t84 204t-84 204
t-204 84zM518.5 160q-81.5 0 -137 55t-55.5 137t55.5 137t137 55t136.5 -55t55 -137t-55 -137t-136.5 -55z" />
    <glyph glyph-name="youhuiquan" unicode="&#xe614;" 
d="M850 311l-205 -205q-22 -22 -51 -11q9 4 17 11l205 205q14 14 13.5 34.5t-14.5 34.5l-296 296h35l295 -296q15 -14 15 -34.5t-14 -34.5zM781 311l-205 -205q-14 -14 -34 -14t-35 15l-305 306l-1 262l284 1l296 -295q14 -15 14 -35t-14 -35zM324 603q-20 0 -34 -14
t-14 -34.5t14 -34.5t34 -14t34 14.5t14 34.5t-14 34t-34 14z" />
    <glyph glyph-name="biji" unicode="&#xe602;" 
d="M134 850v-929h528l235 239v690h-763zM213 770h605v-554h-212v-216h-393v770zM763 136l-77 -78v78h77zM347 598h338v-80h-338v80zM347 379h212v-80h-212v80z" />
    <glyph glyph-name="dunpai" unicode="&#xe60e;" 
d="M918 686q-152 33 -283 115q-29 18 -54.5 37t-36.5 29l-11 10q-9 9 -21 9t-21 -9q-5 -5 -18 -16t-49.5 -36.5t-79 -49.5t-107 -49.5t-131.5 -39.5q-10 -3 -17 -11t-7 -19v-395q0 -5 1 -10q3 -8 9.5 -23.5t29.5 -54t51 -74.5q57 -70 129 -121q91 -64 201 -94q5 -1 8.5 -1
t8.5 1q111 30 201 94q72 51 129 121q28 36 51 74.5t29.5 54t9.5 23.5q1 4 1 10v395q1 10 -5.5 18.5t-17.5 11.5zM881 267q-24 -63 -80 -131q-114 -141 -289 -191q-176 50 -289 191q-52 64 -80 131v365q147 36 279 119q49 30 90 64q38 -31 90 -64q131 -82 279 -119v-365z
M349 378q-10 7 -22.5 5t-20 -12.5t-5 -23t12.5 -19.5l125 -86q8 -5 18 -5q13 0 21 8l235 235q9 9 9 21.5t-9 21.5t-21.5 9t-21.5 -9l-217 -217z" />
    <glyph glyph-name="shouji" unicode="&#xe63e;" 
d="M737 830h-450q-22 0 -38 -16t-16 -38v-786q0 -22 16 -38t38 -16h450q22 0 38 16t16 38v786q0 22 -16 38t-38 16zM462 762h100q6 0 10.5 -4t4.5 -10t-4.5 -10t-10.5 -4h-100q-6 0 -10 4t-4 10t4 10t10 4zM512 -22q-18 0 -31 13t-13 31.5t13 31.5t31.5 13t31.5 -13
t13 -31.5t-13 -31.5t-32 -13v0zM739 104h-453v582h453v-582zM739 104z" />
    <glyph glyph-name="suo" unicode="&#xe6e7;" 
d="M256 553v99q0 61 41 114q66 86 213 87q105 0 173 -53t68 -146v-51q0 -8 1.5 -12.5t7.5 -8.5t17 -4q17 0 17 25v50q0 114 -78.5 177t-204.5 65h-3q-128 -2 -210.5 -66t-82.5 -176v-103q-65 -9 -108 -58t-43 -115v-329q0 -73 51.5 -124.5t124.5 -51.5h554q73 0 125 51.5
t52 124.5v328q0 73 -52 125t-125 52h-538zM928 49q0 -52 -41 -93.5t-93 -41.5h-555q-52 0 -92.5 40t-40.5 92v328q0 52 41 94.5t93 42.5h554q52 0 93 -41.5t41 -93.5v-327zM920 48zM517.5 400q-62.5 0 -107 -44.5t-44.5 -106.5q0 -55 38.5 -97.5t92.5 -51.5h-1v0v-78
q0 -25 21 -25q10 0 15.5 7t5.5 18v78l1 1q54 9 91.5 51t37.5 97q0 62 -44 106.5t-106.5 44.5zM517 132q-48 0 -81.5 33t-35.5 84q-1 46 36.5 81.5t80.5 35.5q44 0 80 -33.5t37 -83.5q1 -49 -33.5 -82.5t-83.5 -34.5zM960 -67z" />
    <glyph glyph-name="TMS_yinlefuhao" unicode="&#xe6cf;" 
d="M434 741q-41 -10 -49 -31t-8 -103q0 -61 1 -207.5t1 -151.5q0 -40 -10.5 -58.5t-33.5 -18.5q-14 0 -45.5 -1t-40.5 -1q-47 0 -69 -54q-22 -55 3 -106q26 -52 89 -52q82 0 105 7q67 20 67 86q0 7 0.5 112t0.5 195.5t-1 116.5q-1 24 6 38t14 17.5t20 6.5q3 1 4 1t117 25.5
t147 32.5q9 1 15 2t9.5 -3.5t6 -6.5t3 -8t1 -9t0 -8.5l-0.5 -5.5v-243q0 -51 -28 -51q-66 4 -98 -5q-36 -11 -56 -37t-21 -56t8 -58t31.5 -46.5t49.5 -18.5q13 0 37 -0.5t34 -0.5t24 2.5t26 7.5q26 11 42.5 36.5t16.5 57.5q0 18 0.5 294t0.5 320q0 16 -4.5 27t-14 16.5
t-19 8t-22.5 1t-22 -2.5t-21.5 -4t-15.5 -4q-8 -1 -139.5 -26.5t-160.5 -32.5z" />
    <glyph glyph-name="duihua" unicode="&#xe646;" 
d="M416 480q20 0 34 14t14 34t-14 34t-34 14t-34 -14t-14 -34t14 -34t34 -14zM608 480q20 0 34 14t14 34t-14 34t-34 14t-34 -14t-14 -34t14 -34t34 -14zM324 168q52 -8 108 -8q112 0 200.5 51t136 135.5t47.5 185.5q0 73 -33 141t-87 116.5t-123.5 77.5t-140.5 29
q-113 0 -209 -48.5t-151.5 -132.5t-55.5 -183q0 -178 128 -287v-181zM80 528q0 127 101.5 215.5t250.5 88.5q79 0 153 -40.5t120.5 -111.5t46.5 -152q0 -129 -88.5 -216.5t-231.5 -87.5q-73 0 -115 9l-109 -73v113q-128 104 -128 255zM878 604q2 -25 2 -28q0 -27 -5 -60
q69 -81 69 -180q0 -79 -43 -146t-117 -109v-113l-109 73q-42 -9 -83 -9q-57 0 -96.5 15.5t-90.5 50.5q-29 -2 -53 -2q-9 0 -38 2q62 -61 126.5 -91.5t151.5 -30.5q37 0 77 6l179 -110v182q74 51 117 125.5t43 160.5q0 76 -34.5 144.5t-95.5 119.5zM224 480q20 0 34 14t14 34
t-14 34t-34 14t-34 -14t-14 -34t14 -34t34 -14z" />
    <glyph glyph-name="jiangbei" unicode="&#xe609;" 
d="M1008 722v16h-179q1 34 1.5 68t0.5 51l-1 17q0 6 -6 6h-310h-2h-2h-312q-5 0 -6 -6q-2 -59 2 -136h-178v-6v-59v-6q4 -120 49 -214q50 -101 140 -167q75 -54 169 -78q50 -54 103 -68v-79q-2 -10 -6.5 -20t-19 -26t-36.5 -28t-63 -20.5t-94 -8.5h-24q-6 0 -6 -6v-59
q0 -6 6 -6h556q6 0 6 6v59q0 6 -6 6h-23q-45 0 -81.5 5.5t-58.5 14.5t-38.5 20.5t-24 22.5t-12 20t-4.5 15v5v79q51 14 101 67q95 24 170 79q91 65 140 167q24 49 36 107t13 88.5t0 73.5zM129 484q-38 79 -42 183h112q3 -32 7 -57q32 -189 94 -300q-115 58 -171 174z
M895 484q-56 -116 -172 -174q62 110 94 300q4 26 7 57h113q-4 -104 -42 -183zM895 484z" />
    <glyph glyph-name="qrcode" unicode="&#xe667;" horiz-adv-x="1025" 
d="M32 896h410q12 -1 19.5 -8.5t10 -24t3 -27.5t0 -34.5t-0.5 -29.5v-224q0 -8 0.5 -29t0.5 -31.5t-2 -25.5t-7.5 -23.5t-15 -12.5t-28.5 -4.5t-45.5 0.5t-32.5 1h-217q-9 0 -31.5 -0.5t-34 0t-27 2.5t-24 9.5t-10.5 20.5v410q9 24 32 31v0zM88 804v-292h296v296h-294
q-2 -1 -2 -4zM583 896h410q27 -10 32 -37v-399q-7 -29 -29 -35q-12 -4 -29.5 -4t-41 1t-32.5 1h-211q-9 0 -33.5 -1t-42 -1t-29.5 4q-10 3 -16.5 12t-8.5 25t-2.5 28t0.5 34.5t1 30.5v209q0 10 -1 34t-0.5 36t3 27.5t10 24t20.5 10.5zM639 804v-292h296v296h-294
q-2 -1 -2 -4zM223 718q31 6 52.5 -11.5t22.5 -45.5q0 -36 -30 -53.5t-60 -2.5q-22 12 -29 37t5 48t39 28zM774 718q50 9 67 -32q15 -35 -7 -65q-21 -28 -60 -21q-29 5 -41 31.5t-0.5 54t41.5 32.5zM439 -128h-406q-26 8 -33 33v408q8 25 28 30q12 4 29 4t40.5 -1t33.5 -1
h211q9 0 32.5 1.5t41.5 1t30 -4.5q11 -3 17.5 -12t9 -25t3 -27.5t-0.5 -34t-1 -30.5v-216q0 -8 0.5 -22.5t0.5 -24.5t-0.5 -23t-2.5 -21.5t-5.5 -16.5t-10.5 -12.5t-17 -5.5v0zM88 252v-292h296v296h-294q-2 0 -2 -4zM1025 308v-114q-2 -10 -1.5 -61.5t-0.5 -62.5h-293v67
q-6 2 -44.5 1.5t-46.5 -0.5q-2 -22 -1.5 -132t0.5 -134h-54q-13 3 -21 11.5t-10.5 24.5t-3 28t0.5 35t1 33v210q0 9 -1.5 33.5t-1 42t3.5 29.5q2 6 5.5 10.5t10 7.5t11.5 4.5t15 2.5t14.5 1h17.5h17h200v-181h92q1 16 0.5 91t1.5 90q23 0 42 -0.5t32 -9.5t14 -27zM230 168
q34 4 55 -22.5t8 -60.5q-6 -18 -22.5 -28t-34.5 -8.5t-33.5 10t-23 26.5t-1.5 41q10 37 52 42zM829 -128h-99q0 9 -0.5 53.5t1.5 52.5h98v-106zM1025 -22v-69q-6 -28 -33 -37h-70q0 9 -0.5 53.5t1.5 52.5h102zM1025 -22z" />
    <glyph glyph-name="jilu" unicode="&#xe678;" 
d="M728.5 -128q-100.5 0 -171.5 72.5t-71 174t71 174t171.5 72.5t171.5 -72.5t71 -174t-71 -174t-171.5 -72.5zM729 307q-77 0 -131.5 -55.5t-54.5 -133.5t54.5 -133t131 -55t131 55t54.5 133.5t-54.5 133.5t-130.5 55v0zM729 90q-12 0 -20.5 8.5t-8.5 19.5v0v128
q0 12 8.5 20.5t20 8.5t20 -8.5t8.5 -20.5v-128q0 -11 -8.5 -19.5t-19.5 -8.5v0zM817.5 -1q-11.5 0 -19.5 9l-89 90q-9 9 -9 20.5t8.5 20t20 8.5t20.5 -8l89 -91q8 -8 8 -20t-8.5 -20.5t-20 -8.5zM529 11h-339q-61 0 -104.5 44t-43.5 106v584q0 63 43.5 107t104.5 44h24
q12 0 20 -8.5t8 -20.5t-8 -20.5t-20 -8.5h-24q-38 0 -65 -27t-27 -66v-583q0 -39 27 -66.5t65 -27.5h339q12 0 20 -8t8 -20t-8 -20.5t-20 -8.5v0zM788.5 298q-11.5 0 -19.5 8.5t-8 20.5v0v418q0 39 -27 66t-65 27h-24q-12 0 -20 8.5t-8 20.5v0q0 12 8 20.5t20 8.5h24
q61 0 104.5 -44t43.5 -107v-418q0 -12 -8.5 -20.5t-20 -8.5zM543 838h-227q-12 0 -20 8.5t-8 20.5v0q0 12 8 20.5t20 8.5h227q12 0 20.5 -8.5t8.5 -20.5t-8.5 -20.5t-20.5 -8.5v0zM672 584h-485q-12 0 -20 8.5t-8 19.5v1q0 11 8 19.5t20 8.5h485q12 0 20 -8.5t8 -20t-8 -20
t-20 -8.5v0zM672 425h-485q-12 0 -20 8t-8 20v0q0 12 8 20.5t20 8.5h485q12 0 20 -8.5t8 -20t-8 -20t-20 -8.5v0zM603 266h-416q-12 0 -20 8t-8 20v0q0 12 8 20.5t20 8.5h416q11 0 19.5 -8.5t8.5 -20.5t-8.5 -20t-19.5 -8v0z" />
    <glyph glyph-name="xing" unicode="&#xe618;" 
d="M512 896l169 -322l343 -69l-239 -268l43 -365l-316 156l-316 -156l43 365l-239 268l343 69l169 322v0z" />
  </font>
</defs>
</svg>
